<svg id="check" xmlns="http://www.w3.org/2000/svg" width="21.266" height="21.266" viewBox="0 0 21.266 21.266">
  <path id="Path_19" data-name="Path 19" d="M10.633,0A10.633,10.633,0,1,0,21.266,10.633,10.645,10.645,0,0,0,10.633,0Zm0,19.333a8.7,8.7,0,1,1,8.7-8.7A8.71,8.71,0,0,1,10.633,19.333Z"/>
  <path id="Path_20" data-name="Path 20" d="M87.146,102.554l-5.468,5.468-2.506-2.506a.967.967,0,1,0-1.367,1.367l3.19,3.19a.967.967,0,0,0,.683.283h0a.967.967,0,0,0,.683-.283l6.152-6.152a.967.967,0,0,0-1.367-1.367Z" transform="translate(-72.526 -95.68)"/>
</svg>
