<svg id="check" xmlns="http://www.w3.org/2000/svg" width="17.565" height="17.565" viewBox="0 0 17.565 17.565">
  <path id="Path_3" data-name="Path 3" d="M8.783,0a8.783,8.783,0,1,0,8.783,8.783A8.793,8.793,0,0,0,8.783,0Zm0,15.969a7.186,7.186,0,1,1,7.186-7.186A7.194,7.194,0,0,1,8.783,15.969Z" fill="#0ee8b2"/>
  <path id="Path_4" data-name="Path 4" d="M85.471,102.5l-4.517,4.517-2.07-2.07a.8.8,0,1,0-1.129,1.129l2.635,2.635a.8.8,0,0,0,.565.234h0a.8.8,0,0,0,.565-.234l5.081-5.081a.8.8,0,0,0-1.129-1.129Z" transform="translate(-73.395 -96.827)" fill="#0ee8b2"/>
</svg>
