<svg xmlns="http://www.w3.org/2000/svg" width="40.219" height="22.384" viewBox="0 0 40.219 22.384">
  <g id="delivery" transform="translate(1 1)">
    <path id="Path_210" data-name="Path 210" d="M27.581,9V26.326H15.274a3.083,3.083,0,0,0-6.153,0H6V9Z" transform="translate(0.37 -9)" fill="none" stroke="#fff" stroke-linecap="round" stroke-linejoin="round" stroke-width="2"/>
    <path id="Path_211" data-name="Path 211" d="M33.208,19.115V25.23H31.157a3.083,3.083,0,0,0-6.153,0H22.94V13h4.293Z" transform="translate(5.011 -7.904)" fill="none" stroke="#fff" stroke-linecap="round" stroke-linejoin="round" stroke-width="2"/>
    <path id="Path_212" data-name="Path 212" d="M33.208,17.8v6.115H31.157a3.083,3.083,0,0,0-6.153,0H22.94V17.8Z" transform="translate(5.011 -6.589)" fill="none" stroke="#fff" stroke-linecap="round" stroke-linejoin="round" stroke-width="2"/>
    <ellipse id="Ellipse_5" data-name="Ellipse 5" cx="3.083" cy="3.058" rx="3.083" ry="3.058" transform="translate(9.478 14.268)" fill="none" stroke="#fff" stroke-linecap="round" stroke-linejoin="round" stroke-width="2"/>
    <ellipse id="Ellipse_6" data-name="Ellipse 6" cx="3.083" cy="3.058" rx="3.083" ry="3.058" transform="translate(30.002 14.268)" fill="none" stroke="#fff" stroke-linecap="round" stroke-linejoin="round" stroke-width="2"/>
    <line id="Line_11" data-name="Line 11" x2="3.325" transform="translate(0 2.038)" fill="none" stroke="#fff" stroke-linecap="round" stroke-linejoin="round" stroke-width="2"/>
    <line id="Line_12" data-name="Line 12" x2="3.325" transform="translate(0 6.115)" fill="none" stroke="#fff" stroke-linecap="round" stroke-linejoin="round" stroke-width="2"/>
    <line id="Line_13" data-name="Line 13" x2="3.325" transform="translate(0 10.192)" fill="none" stroke="#fff" stroke-linecap="round" stroke-linejoin="round" stroke-width="2"/>
  </g>
</svg>
