<svg id="diamond" xmlns="http://www.w3.org/2000/svg" width="38.391" height="38.391" viewBox="0 0 38.391 38.391">
  <path id="Path_252" data-name="Path 252" d="M49.26,23.3,44.252,12.048a1.6,1.6,0,0,0-1.458-.948H17.8a1.58,1.58,0,0,0-1.458.948l-5.1,11.442a1.652,1.652,0,0,0,.172,1.6L29.009,48.836a1.592,1.592,0,0,0,2.571,0l17.485-23.6a1.582,1.582,0,0,0,.2-1.936Zm-3.832-.76H36.823L38.414,14.3h3.339Zm-17.782,3.2h5.3L30.294,39.455Zm-.619-3.2L25.435,14.3h9.718l-1.591,8.245H27.026ZM18.837,14.3h3.339l1.591,8.245H15.161ZM24.385,25.74l3,15.533L15.874,25.74ZM33.2,41.281l3-15.533h8.511Z" transform="translate(-11.11 -11.1)" fill="#fff"/>
</svg>
