<svg xmlns="http://www.w3.org/2000/svg" width="43.133" height="33.28" viewBox="0 0 43.133 33.28">
  <path id="gold" d="M130.261,222.45h18.72a.313.313,0,0,0,.071-.005.436.436,0,0,0,.361-.5l-2.2-13.575a.436.436,0,0,0-.432-.367H132.461a.436.436,0,0,0-.432.367l-2.2,13.575a.312.312,0,0,0-.005.071A.439.439,0,0,0,130.261,222.45Zm4.992-10.728h8.731l1.133,7.006h-11Zm.137,15.474a.436.436,0,0,0-.432-.367H120.638a.436.436,0,0,0-.432.367l-2.2,13.575a.313.313,0,0,0-.005.071.439.439,0,0,0,.438.438h18.72a.312.312,0,0,0,.071-.005.436.436,0,0,0,.361-.5ZM122.3,237.558l1.133-7.006h8.73l1.133,7.006Zm38.83,3.213-2.2-13.575a.436.436,0,0,0-.432-.367H144.175a.436.436,0,0,0-.432.367l-2.2,13.575a.313.313,0,0,0-.005.071.439.439,0,0,0,.438.438h18.72a.312.312,0,0,0,.071-.005A.44.44,0,0,0,161.127,240.771Zm-15.293-3.213,1.133-7.006H155.7l1.133,7.006Z" transform="translate(-118 -208)" fill="#fff"/>
</svg>
