<svg id="icons" xmlns="http://www.w3.org/2000/svg" width="17.219" height="11.001" viewBox="0 0 17.219 11.001">
  <g id="ui-gambling-website-lined-icnos-casinoshunter" transform="translate(0 0)">
    <g id="square-filled" transform="translate(0 0)">
      <path id="left-arrow" d="M12.009.139l5.042,5,.028.026a.471.471,0,0,1,.139.307V5.53a.471.471,0,0,1-.139.307l-.025.021-5.046,5a.481.481,0,0,1-.676,0,.471.471,0,0,1,0-.67l4.309-4.273H.478a.474.474,0,1,1,0-.948H15.53L11.333.809a.471.471,0,0,1,0-.67A.481.481,0,0,1,12.009.139ZM16.8,5.444l-5.125,5.083L16.742,5.5v0l-.028-.026-.029-.029Z" transform="translate(0 0)" fill="#fff"/>
    </g>
  </g>
</svg>
