<svg id="icons" xmlns="http://www.w3.org/2000/svg" width="17.219" height="11.001" viewBox="0 0 17.219 11.001">
  <g id="ui-gambling-website-lined-icnos-casinoshunter" transform="translate(0 0)">
    <g id="square-filled" transform="translate(0 0)">
      <path id="left-arrow" d="M12.009,10.862l5.042-5,.028-.026a.471.471,0,0,0,.139-.307V5.471a.471.471,0,0,0-.139-.307l-.025-.021-5.046-5a.481.481,0,0,0-.676,0,.471.471,0,0,0,0,.67l4.309,4.273H.478a.474.474,0,1,0,0,.948H15.53l-4.2,4.161a.471.471,0,0,0,0,.67A.481.481,0,0,0,12.009,10.862ZM16.8,5.557,11.671.474,16.742,5.5v0l-.028.026-.029.029Z" transform="translate(17.219 11.001) rotate(180)"/>
    </g>
  </g>
</svg>
