<svg xmlns="http://www.w3.org/2000/svg" width="36.869" height="36.595" viewBox="0 0 36.869 36.595">
  <g id="pickup" transform="translate(0.274)">
    <rect id="Rectangle_180" data-name="Rectangle 180" width="36.322" height="36.322" fill="none"/>
    <g id="Group_23" data-name="Group 23" transform="translate(24.699 28.331)">
      <circle id="Ellipse_7" data-name="Ellipse 7" cx="3.632" cy="3.632" r="3.632" fill="none" stroke="#fff" stroke-width="2"/>
    </g>
    <g id="Group_24" data-name="Group 24" transform="translate(4.359 28.331)">
      <circle id="Ellipse_8" data-name="Ellipse 8" cx="3.632" cy="3.632" r="3.632" fill="none" stroke="#fff" stroke-width="2"/>
    </g>
    <path id="Path_213" data-name="Path 213" d="M32.237,38.255h2.179A1.5,1.5,0,0,0,35.869,36.8V32.444c0-1.388-4.359-2.906-7.991-3.632-1.22-.244-4.359-4.359-4.359-4.359A3.774,3.774,0,0,0,20.614,23H14.085a1.3,1.3,0,0,0-1.462,1.377v4.434H3.179A1.952,1.952,0,0,0,1,30.991v6.035a1.316,1.316,0,0,0,1.453,1.229H4.632m7.264,0H24.972" transform="translate(-0.274 -6.292)" fill="none" stroke="#fff" stroke-width="2"/>
    <line id="Line_14" data-name="Line 14" x2="23.972" transform="translate(3.632 22.52)" fill="none" stroke="#fff" stroke-linecap="round" stroke-linejoin="round" stroke-width="2"/>
    <line id="Line_15" data-name="Line 15" y2="5.812" transform="translate(17.435 16.708)" fill="none" stroke="#fff" stroke-width="2"/>
  </g>
</svg>
