<svg id="silver" xmlns="http://www.w3.org/2000/svg" width="46.506" height="46.506" viewBox="0 0 46.506 46.506">
  <path id="Path_253" data-name="Path 253" d="M119.753,99.234l-.614-1.482-13.027,5.4,5.4-13.028-1.482-.614-5.4,13.027-5.4-13.028-1.482.614,5.4,13.028-13.028-5.4-.614,1.482,13.028,5.4-13.027,5.4.614,1.482,13.028-5.4-5.4,13.027,1.482.614,5.4-13.028,5.4,13.027,1.482-.614-5.4-13.027,13.026,5.4.614-1.482-13.027-5.4Z" transform="translate(-81.377 -81.377)" fill="#fff"/>
  <path id="Path_254" data-name="Path 254" d="M84.547,62.548l-.313-1.573L69.312,63.944l12.651-8.453-.891-1.333L68.424,62.608l8.451-12.647-1.333-.891L67.089,61.72,70.057,46.8l-1.573-.313L65.517,61.4,62.549,46.485l-1.573.313L63.944,61.72,55.492,49.07l-1.333.891,8.451,12.647L49.962,54.157l-.891,1.333,12.651,8.453L46.8,60.975l-.313,1.573,14.921,2.968L46.486,68.484l.313,1.573,14.919-2.967L49.07,75.54l.891,1.334L62.612,68.42,54.159,81.071l1.333.891,8.451-12.647L60.975,84.233l1.573.313,2.968-14.922,2.968,14.922,1.573-.313L67.09,69.315l8.451,12.647,1.333-.891L68.421,68.42l12.651,8.453.891-1.334L69.316,67.089l14.918,2.967.313-1.573L69.627,65.516Z" transform="translate(-42.264 -42.263)" fill="#fff"/>
  <g id="Group_58" data-name="Group 58" transform="translate(1.989 1.989)">
    <circle id="Ellipse_11" data-name="Ellipse 11" cx="1.604" cy="1.604" r="1.604" transform="translate(15.75)" fill="#fff"/>
    <circle id="Ellipse_12" data-name="Ellipse 12" cx="1.604" cy="1.604" r="1.604" transform="translate(23.571 39.321)" fill="#fff"/>
    <circle id="Ellipse_13" data-name="Ellipse 13" cx="1.604" cy="1.604" r="1.604" transform="translate(39.321 15.75)" fill="#fff"/>
    <circle id="Ellipse_14" data-name="Ellipse 14" cx="1.604" cy="1.604" r="1.604" transform="translate(0 23.571)" fill="#fff"/>
    <circle id="Ellipse_15" data-name="Ellipse 15" cx="1.604" cy="1.604" r="1.604" transform="translate(2.994 8.524)" fill="#fff"/>
    <circle id="Ellipse_16" data-name="Ellipse 16" cx="1.604" cy="1.604" r="1.604" transform="translate(36.327 30.797)" fill="#fff"/>
    <circle id="Ellipse_17" data-name="Ellipse 17" cx="1.604" cy="1.604" r="1.604" transform="translate(30.797 2.994)" fill="#fff"/>
    <circle id="Ellipse_18" data-name="Ellipse 18" cx="1.604" cy="1.604" r="1.604" transform="translate(8.524 36.327)" fill="#fff"/>
    <circle id="Ellipse_19" data-name="Ellipse 19" cx="1.604" cy="1.604" r="1.604" transform="translate(23.571)" fill="#fff"/>
    <circle id="Ellipse_20" data-name="Ellipse 20" cx="1.604" cy="1.604" r="1.604" transform="translate(15.75 39.321)" fill="#fff"/>
    <circle id="Ellipse_21" data-name="Ellipse 21" cx="1.604" cy="1.604" r="1.604" transform="translate(0 15.75)" fill="#fff"/>
    <circle id="Ellipse_22" data-name="Ellipse 22" cx="1.604" cy="1.604" r="1.604" transform="translate(39.321 23.571)" fill="#fff"/>
    <circle id="Ellipse_23" data-name="Ellipse 23" cx="1.604" cy="1.604" r="1.604" transform="translate(36.327 8.524)" fill="#fff"/>
    <circle id="Ellipse_24" data-name="Ellipse 24" cx="1.604" cy="1.604" r="1.604" transform="translate(2.994 30.797)" fill="#fff"/>
    <circle id="Ellipse_25" data-name="Ellipse 25" cx="1.604" cy="1.604" r="1.604" transform="translate(8.524 2.994)" fill="#fff"/>
    <circle id="Ellipse_26" data-name="Ellipse 26" cx="1.604" cy="1.604" r="1.604" transform="translate(30.797 36.327)" fill="#fff"/>
  </g>
  <g id="Group_59" data-name="Group 59" transform="translate(6.093 6.093)">
    <circle id="Ellipse_27" data-name="Ellipse 27" cx="1.604" cy="1.604" r="1.604" transform="translate(9.113)" fill="#fff"/>
    <circle id="Ellipse_28" data-name="Ellipse 28" cx="1.604" cy="1.604" r="1.604" transform="translate(22 31.113)" fill="#fff"/>
    <circle id="Ellipse_29" data-name="Ellipse 29" cx="1.604" cy="1.604" r="1.604" transform="translate(31.113 9.113)" fill="#fff"/>
    <circle id="Ellipse_30" data-name="Ellipse 30" cx="1.604" cy="1.604" r="1.604" transform="translate(0 22)" fill="#fff"/>
    <circle id="Ellipse_31" data-name="Ellipse 31" cx="1.604" cy="1.604" r="1.604" transform="translate(22)" fill="#fff"/>
    <circle id="Ellipse_32" data-name="Ellipse 32" cx="1.604" cy="1.604" r="1.604" transform="translate(9.113 31.113)" fill="#fff"/>
    <circle id="Ellipse_33" data-name="Ellipse 33" cx="1.604" cy="1.604" r="1.604" transform="translate(31.113 22)" fill="#fff"/>
    <circle id="Ellipse_34" data-name="Ellipse 34" cx="1.604" cy="1.604" r="1.604" transform="translate(0 9.113)" fill="#fff"/>
  </g>
  <path id="Path_255" data-name="Path 255" d="M68.178,46.529H49.266L62.639,33.156l-1.134-1.134L48.133,45.395V26.483h-1.6V45.4L33.156,32.022l-1.134,1.134L45.395,46.529H26.483v1.6H45.395L32.022,61.505l1.134,1.134L46.529,49.266V68.178h1.6V49.267L61.5,62.639l1.134-1.134L49.266,48.133H68.178Z" transform="translate(-24.077 -24.077)" fill="#fff"/>
  <g id="Group_60" data-name="Group 60" transform="translate(0 0)">
    <circle id="Ellipse_35" data-name="Ellipse 35" cx="1.604" cy="1.604" r="1.604" transform="translate(21.649 0)" fill="#fff"/>
    <circle id="Ellipse_36" data-name="Ellipse 36" cx="1.604" cy="1.604" r="1.604" transform="translate(21.649 43.299)" fill="#fff"/>
    <circle id="Ellipse_37" data-name="Ellipse 37" cx="1.604" cy="1.604" r="1.604" transform="translate(43.299 21.649)" fill="#fff"/>
    <circle id="Ellipse_38" data-name="Ellipse 38" cx="1.604" cy="1.604" r="1.604" transform="translate(0 21.649)" fill="#fff"/>
    <circle id="Ellipse_39" data-name="Ellipse 39" cx="1.604" cy="1.604" r="1.604" transform="translate(36.958 6.341)" fill="#fff"/>
    <circle id="Ellipse_40" data-name="Ellipse 40" cx="1.604" cy="1.604" r="1.604" transform="translate(6.341 36.958)" fill="#fff"/>
    <circle id="Ellipse_41" data-name="Ellipse 41" cx="1.604" cy="1.604" r="1.604" transform="translate(36.958 36.958)" fill="#fff"/>
    <circle id="Ellipse_42" data-name="Ellipse 42" cx="1.604" cy="1.604" r="1.604" transform="translate(6.341 6.341)" fill="#fff"/>
  </g>
  <circle id="Ellipse_43" data-name="Ellipse 43" cx="1.203" cy="1.203" r="1.203" transform="translate(22.05 22.05)" fill="#fff"/>
</svg>
