<svg id="stars" xmlns="http://www.w3.org/2000/svg" width="67.853" height="13.511" viewBox="0 0 67.853 13.511">
  <path id="Path_21" data-name="Path 21" d="M8.369,201.376l-1.6-5.161-1.6,5.161H0l4.185,3.189-1.6,5.161,4.185-3.191,4.185,3.191-1.6-5.161,4.185-3.189Z" transform="translate(0 -196.215)" fill="#30ebbc"/>
  <path id="Path_22" data-name="Path 22" d="M106.421,201.376l-1.6-5.161-1.6,5.161H98.052l4.185,3.189-1.6,5.161,4.185-3.191,4.185,3.191-1.6-5.161,4.185-3.189Z" transform="translate(-84.474 -196.215)" fill="#30ebbc"/>
  <path id="Path_23" data-name="Path 23" d="M204.473,201.376l-1.6-5.161-1.6,5.161H196.1l4.185,3.189-1.6,5.161,4.185-3.191,4.185,3.191-1.6-5.161,4.185-3.189Z" transform="translate(-168.948 -196.215)" fill="#30ebbc"/>
  <path id="Path_24" data-name="Path 24" d="M302.526,201.376l-1.6-5.161-1.6,5.161h-5.172l4.185,3.189-1.6,5.161,4.185-3.191,4.185,3.191-1.6-5.161,4.185-3.189Z" transform="translate(-253.424 -196.215)" fill="#30ebbc"/>
  <path id="Path_25" data-name="Path 25" d="M398.98,196.215l-1.6,5.161h-5.172l4.185,3.189-1.6,5.161,4.185-3.191,4.185,3.191-1.6-5.161,4.185-3.189h-5.172Z" transform="translate(-337.898 -196.215)" fill="#30ebbc"/>
</svg>
