<svg xmlns="http://www.w3.org/2000/svg" xmlns:xlink="http://www.w3.org/1999/xlink" viewBox="0 0 412.74 431.17"><defs><style>.cls-1{fill:url(#linear-gradient);}</style><linearGradient id="linear-gradient" x1="92.84" y1="415.83" x2="322.06" y2="18.8" gradientUnits="userSpaceOnUse"><stop offset="0" stop-color="#1b55ca"/><stop offset="0.19" stop-color="#1b58c9"/><stop offset="0.35" stop-color="#1a63c8"/><stop offset="0.51" stop-color="#1875c5"/><stop offset="0.66" stop-color="#168fc1"/><stop offset="0.8" stop-color="#13afbb"/><stop offset="0.95" stop-color="#0fd7b5"/><stop offset="1" stop-color="#0ee8b2"/></linearGradient></defs><g id="Layer_2" data-name="Layer 2"><g id="Layer_1-2" data-name="Layer 1"><path class="cls-1" d="M397,328.53c-34.4,74.57-114.55,102.28-191.64,102.64-71.44-1.49-135.89-21.33-191.74-64.05-2-1.51-4-3.06-5.92-4.64a27.39,27.39,0,0,1,34-42.38q2.34,1.86,4.7,3.65C113.28,374.7,189.31,387.56,271.69,365c74.39-20.33,92.65-85.38,80.05-134.29-9.68-37.54-37.09-58.87-72-71.57q-8.16-3-16.45-5.15c-23.16-6.11-47-7.78-71.06-6.48-.29,0-.61,0-.91,0a20.33,20.33,0,0,0-3.24.27A19.26,19.26,0,0,0,191.35,186h.16q1.13.09,2.25.15c19.58,1.25,39.27,1,58.72,4.35q4,.72,7.8,1.69c79.24,20.47,70.55,125.55-9,139.47-78.17,15.91-148.14.82-205.08-58C-14.68,210.9-6.66,104.65,61.86,47.92c88.39-71,214.09-55.78,307.46-1.83l0,0q1.8,1,3.57,2.1a26.32,26.32,0,0,1,8.82,32.51c-1.68,2.34-3.31,4.74-4.87,7.16a26,26,0,0,1-28.53,6.21c-1.82-1-3.66-2-5.5-3C306.91,71.64,268.7,58.68,227.37,55.13c-40.5-3.48-79.19,2.91-113.84,25-75.07,44.57-62.64,155.71,17,187.52,33.84,15.11,69.64,16.6,105.89,10.91,10.66-1.91,21.86-8.14,20.43-20.43-2.61-20.66-34.08-15.81-49-16.5-5.51-.12-11-.28-16.49-.58h-.05c-3.39-.18-6.77-.41-10.15-.71A73.7,73.7,0,0,1,166.82,98.08a168.57,168.57,0,0,1,23-4.22,209.5,209.5,0,0,1,63.41,2.59c42.53,7.77,81,24.77,113.4,53.94C418.79,197.39,423.34,272.74,397,328.53Z"/></g></g></svg>