<svg xmlns="http://www.w3.org/2000/svg" viewBox="0 0 126.84 132.51"><g id="Layer_2" data-name="Layer 2"><g id="Layer_1-2" data-name="Layer 1"><path d="M122,101c-10.57,22.92-35.2,31.43-58.89,31.55-22-.46-41.76-6.56-58.93-19.69-.61-.46-1.21-.94-1.82-1.42a8.42,8.42,0,0,1,10.46-13c.48.38,1,.76,1.45,1.12,20.53,15.66,43.9,19.61,69.21,12.69,22.87-6.25,28.48-26.24,24.6-41.27-3-11.53-11.39-18.09-22.11-22-1.68-.61-3.36-1.14-5.06-1.58a70.2,70.2,0,0,0-21.83-2H58.8a5.37,5.37,0,0,0-1,.08,5.91,5.91,0,0,0,.06,11.67,5.64,5.64,0,0,0,.93.08h.05l.7,0c6,.39,12.06.3,18,1.34.83.15,1.63.32,2.4.52,24.35,6.29,21.68,38.58-2.78,42.86-24,4.89-45.53.25-63-17.81C-4.51,64.81-2,32.16,19,14.73,46.18-7.1,84.8-2.42,113.5,14.17h0l1.09.65a8.07,8.07,0,0,1,2.71,10c-.51.72-1,1.45-1.49,2.2A8,8,0,0,1,110,29.49a8.19,8.19,0,0,1-3-.57L105.36,28a90.33,90.33,0,0,0-35.49-11c-12.44-1.07-24.33.9-35,7.68C11.82,38.31,15.64,72.47,40.13,82.24c10.39,4.65,21.4,5.11,32.54,3.36,3.27-.59,6.71-2.5,6.28-6.28-.8-6.35-10.48-4.86-15.06-5.07-1.69,0-3.38-.09-5.07-.18h0c-1-.06-2.08-.13-3.11-.22a22.65,22.65,0,0,1-4.42-43.71,51,51,0,0,1,7.07-1.29,64.1,64.1,0,0,1,19.48.79c13.07,2.39,24.9,7.61,34.85,16.58C128.7,60.66,130.1,83.82,122,101Z"/></g></g></svg>