<svg xmlns="http://www.w3.org/2000/svg" viewBox="0 0 594.77 265.81"><defs><style>.cls-1,.cls-2,.cls-4{fill:#fff;}.cls-2{font-size:96.4px;}.cls-2,.cls-4{font-family:GothamRounded-Medium, Gotham Rounded;font-weight:500;}.cls-3{letter-spacing:-0.01em;}.cls-4{font-size:74.69px;}</style></defs><g id="Layer_2" data-name="Layer 2"><g id="Layer_1-2" data-name="Layer 1"><path class="cls-1" d="M244.75,202.53c-21.2,46-70.62,63.06-118.14,63.28-44-.93-83.77-13.16-118.2-39.49-1.22-.93-2.44-1.89-3.65-2.86a16.89,16.89,0,0,1,21-26.13c1,.77,1.92,1.52,2.89,2.26C69.83,231,116.7,238.92,167.49,225c45.86-12.54,57.12-52.63,49.35-82.79-6-23.14-22.87-36.29-44.37-44.12-3.35-1.23-6.74-2.28-10.14-3.18a141.25,141.25,0,0,0-43.8-4l-.57,0a11.87,11.87,0,0,0-1.88,23.59,11.63,11.63,0,0,0,1.88.15h.1l1.39.09c12.07.77,24.21.6,36.2,2.68,1.65.3,3.26.64,4.8,1,48.85,12.62,43.5,77.4-5.56,86-48.2,9.81-91.33.51-126.43-35.73C-9,130-4.11,64.51,38.14,29.54c54.49-43.79,132-34.39,189.54-1.12h0l2.2,1.3a16.2,16.2,0,0,1,5.43,20c-1,1.45-2,2.92-3,4.42A16,16,0,0,1,214.74,58c-1.12-.63-2.25-1.26-3.39-1.87-22.15-12-45.71-20-71.18-22.14-25-2.15-48.82,1.79-70.18,15.39-46.28,27.48-38.62,96,10.5,115.6,20.86,9.32,42.94,10.24,65.28,6.72,6.57-1.17,13.48-5,12.6-12.59-1.61-12.74-21-9.74-30.21-10.17-3.4-.07-6.78-.17-10.17-.36h0c-2.09-.11-4.17-.25-6.25-.44a45.42,45.42,0,0,1-8.87-87.67A103.25,103.25,0,0,1,117,57.86a129.27,129.27,0,0,1,39.08,1.6c26.22,4.79,49.95,15.27,69.91,33.25C258.17,121.69,261,168.14,244.75,202.53Z"/><text class="cls-2" transform="translate(283.21 153.77)"><tspan class="cls-3">Sw</tspan><tspan x="142" y="0">ags</tspan></text><text class="cls-4" transform="translate(283.21 231.16)">Laundry</text></g></g></svg>